<svg xmlns="http://www.w3.org/2000/svg" width="655.359" height="655.359" fill-rule="evenodd" clip-rule="evenodd" image-rendering="optimizeQuality" shape-rendering="geometricPrecision" text-rendering="geometricPrecision" viewBox="0 0 6.827 6.827"><defs><clipPath id="a"><path d="M3.41333 0c1.88513,0 3.41333,1.5282 3.41333,3.41333 0,1.88513 -1.5282,3.41333 -3.41333,3.41333 -1.88513,0 -3.41333,-1.5282 -3.41333,-3.41333 0,-1.88513 1.5282,-3.41333 3.41333,-3.41333z"/></clipPath></defs><path fill="#e64a19" d="M3.41333 0c1.88513,0 3.41333,1.5282 3.41333,3.41333 0,1.88513 -1.5282,3.41333 -3.41333,3.41333 -1.88513,0 -3.41333,-1.5282 -3.41333,-3.41333 0,-1.88513 1.5282,-3.41333 3.41333,-3.41333z"/><g clip-path="url(#a)"><polygon fill="#ad3c19" points="1.818 3.401 5.604 7.187 5.614 7.196 5.623 7.206 1.837 3.42 1.827 3.41"/><path fill="#ad3c19" d="M6.96622 7.48606l0 0zm-3.78627 -3.78627l0 0z"/><polygon fill="#ad3c19" points="5.36 2.529 9.146 6.316 9.15 6.32 9.153 6.324 9.156 6.328 9.16 6.333 9.163 6.337 9.165 6.342 9.168 6.346 9.171 6.351 9.174 6.356 9.176 6.361 9.178 6.365 9.181 6.37 9.183 6.375 5.396 2.589 5.394 2.584 5.392 2.579 5.39 2.574 5.387 2.57 5.385 2.565 5.382 2.56 5.379 2.556 5.376 2.551 5.373 2.547 5.37 2.542 5.367 2.538 5.363 2.533"/><polygon fill="#ad3c19" points="5.396 2.589 9.183 6.375 9.185 6.38 9.187 6.386 9.188 6.391 9.19 6.396 9.192 6.401 9.193 6.407 9.194 6.412 9.195 6.417 9.196 6.422 9.197 6.428 9.198 6.433 9.199 6.438 9.199 6.444 9.199 6.449 9.2 6.454 9.2 6.46 5.413 2.674 5.413 2.668 5.413 2.663 5.413 2.658 5.412 2.652 5.412 2.647 5.411 2.642 5.41 2.636 5.409 2.631 5.408 2.626 5.407 2.62 5.405 2.615 5.404 2.61 5.402 2.605 5.4 2.599 5.398 2.594"/><polygon fill="#ad3c19" points="5.413 2.674 9.2 6.46 9.2 6.465 9.199 6.471 9.199 6.476 9.199 6.481 9.198 6.487 9.197 6.492 9.196 6.497 9.195 6.503 9.194 6.508 9.193 6.513 9.192 6.518 9.19 6.524 9.188 6.529 9.187 6.534 9.185 6.539 9.183 6.544 5.396 2.758 5.398 2.753 5.4 2.748 5.402 2.743 5.404 2.737 5.405 2.732 5.407 2.727 5.408 2.722 5.409 2.716 5.41 2.711 5.411 2.706 5.412 2.7 5.412 2.695 5.413 2.69 5.413 2.684 5.413 2.679"/><polygon fill="#ad3c19" points="5.396 2.758 9.183 6.544 9.181 6.549 9.178 6.554 9.176 6.559 9.174 6.564 9.171 6.569 9.168 6.573 9.165 6.578 9.163 6.582 9.16 6.587 9.156 6.591 9.153 6.596 9.15 6.6 9.146 6.604 9.143 6.608 9.139 6.612 9.135 6.616 5.349 2.83 5.353 2.826 5.356 2.822 5.36 2.818 5.363 2.814 5.367 2.809 5.37 2.805 5.373 2.801 5.376 2.796 5.379 2.792 5.382 2.787 5.385 2.782 5.387 2.778 5.39 2.773 5.392 2.768 5.394 2.763"/><polygon fill="#ad3c19" points="5.349 2.83 9.135 6.616 7.644 8.107 3.858 4.321"/><polygon fill="#ad3c19" points="3.858 4.321 7.644 8.107 7.641 8.111 7.637 8.114 7.633 8.116 7.63 8.119 7.625 8.121 7.621 8.123 7.616 8.125 7.611 8.126 3.825 4.34 3.83 4.339 3.835 4.337 3.839 4.335 3.843 4.333 3.847 4.33 3.851 4.327 3.854 4.324"/><polygon fill="#ad3c19" points="3.825 4.34 7.611 8.126 7.61 8.126 7.61 8.127 7.609 8.127 7.608 8.127 7.608 8.127 7.607 8.127 7.606 8.127 7.606 8.127 3.82 4.341 3.82 4.341 3.821 4.341 3.822 4.341 3.822 4.34 3.823 4.34 3.824 4.34 3.824 4.34"/><polygon fill="#ad3c19" points="3.82 4.341 7.606 8.127 6.942 8.274 3.156 4.488"/><polygon fill="#ad3c19" points="1.736 3.495 5.522 7.282 5.517 7.278 5.512 7.274 5.507 7.271 5.502 7.268 5.497 7.265 5.491 7.263 5.486 7.261 5.48 7.259 5.474 7.258 5.468 7.258 5.461 7.257 5.455 7.258 5.448 7.258 5.441 7.259 5.434 7.261 5.427 7.263 5.42 7.265 5.412 7.268 5.404 7.272 5.396 7.276 5.388 7.28 5.38 7.285 5.371 7.29 5.362 7.296 5.353 7.303 5.344 7.31 5.334 7.317 5.324 7.325 5.314 7.334 5.304 7.343 1.518 3.557 1.528 3.548 1.538 3.539 1.548 3.531 1.558 3.523 1.567 3.516 1.576 3.51 1.585 3.504 1.593 3.499 1.602 3.494 1.61 3.489 1.618 3.485 1.626 3.482 1.633 3.479 1.641 3.477 1.648 3.475 1.655 3.473 1.662 3.472 1.669 3.471 1.675 3.471 1.681 3.471 1.687 3.472 1.693 3.473 1.699 3.475 1.705 3.476 1.71 3.479 1.716 3.481 1.721 3.484 1.726 3.488 1.731 3.491"/><polygon fill="#ad3c19" points="1.837 3.42 5.623 7.206 5.631 7.216 5.639 7.225 5.647 7.236 5.655 7.246 5.662 7.257 5.67 7.269 5.677 7.281 5.684 7.293 5.691 7.306 5.697 7.319 5.704 7.333 5.71 7.347 5.717 7.361 5.723 7.375 5.729 7.39 5.735 7.406 5.741 7.421 5.747 7.437 5.753 7.453 5.759 7.469 5.765 7.485 5.77 7.502 5.776 7.519 5.781 7.536 5.787 7.554 5.792 7.571 5.798 7.589 5.803 7.607 5.809 7.625 5.814 7.643 5.82 7.661 5.826 7.679 2.039 3.893 2.034 3.875 2.028 3.856 2.023 3.838 2.017 3.82 2.012 3.802 2.006 3.785 2.001 3.767 1.995 3.75 1.99 3.733 1.984 3.716 1.978 3.699 1.973 3.683 1.967 3.666 1.961 3.65 1.955 3.635 1.949 3.619 1.943 3.604 1.937 3.589 1.931 3.575 1.924 3.56 1.918 3.547 1.911 3.533 1.904 3.52 1.897 3.507 1.89 3.495 1.883 3.483 1.876 3.471 1.869 3.46 1.861 3.449 1.853 3.439 1.845 3.429"/><polygon fill="#ad3c19" points="2.971 4.456 6.757 8.242 6.762 8.246 6.765 8.251 6.769 8.255 6.772 8.26 6.774 8.266 6.776 8.271 6.778 8.277 6.779 8.282 6.78 8.288 6.78 8.294 6.779 8.3 6.778 8.306 6.776 8.311 6.774 8.317 6.771 8.322 6.767 8.327 6.763 8.332 6.757 8.337 6.751 8.341 2.965 4.555 2.971 4.551 2.976 4.546 2.981 4.541 2.985 4.536 2.988 4.53 2.99 4.525 2.992 4.519 2.993 4.513 2.994 4.508 2.994 4.502 2.993 4.496 2.992 4.49 2.99 4.485 2.988 4.479 2.985 4.474 2.982 4.469 2.979 4.464 2.975 4.46"/><polygon fill="#ad3c19" points="3.106 4.489 6.892 8.275 6.887 8.274 6.882 8.273 6.877 8.273 6.872 8.272 6.867 8.272 6.861 8.271 6.856 8.271 6.85 8.271 6.845 8.271 6.839 8.27 6.834 8.27 6.828 8.27 6.823 8.27 6.817 8.27 6.812 8.269 6.807 8.269 6.802 8.268 6.798 8.267 6.793 8.267 6.789 8.265 6.785 8.264 6.781 8.263 6.778 8.261 6.775 8.259 6.772 8.257 2.986 4.471 2.989 4.473 2.992 4.475 2.995 4.476 2.999 4.478 3.003 4.479 3.007 4.48 3.011 4.481 3.016 4.482 3.021 4.482 3.026 4.483 3.031 4.483 3.037 4.484 3.042 4.484 3.047 4.484 3.053 4.484 3.058 4.484 3.064 4.485 3.069 4.485 3.075 4.485 3.08 4.485 3.086 4.486 3.091 4.486 3.096 4.487 3.101 4.488"/><polygon fill="#ad3c19" points="1.518 3.557 5.304 7.343 5.299 7.347 5.294 7.351 5.289 7.354 5.283 7.356 5.277 7.358 5.271 7.359 5.265 7.36 5.259 7.36 5.253 7.359 5.248 7.358 5.242 7.356 5.236 7.354 5.231 7.351 5.226 7.348 5.221 7.344 1.434 3.558 1.439 3.562 1.444 3.565 1.45 3.568 1.455 3.57 1.461 3.572 1.467 3.573 1.473 3.573 1.479 3.573 1.485 3.573 1.491 3.572 1.497 3.57 1.502 3.567 1.508 3.564 1.513 3.561"/><polygon fill="#ad3c19" points="2.245 4.412 6.031 8.198 6.043 8.215 6.055 8.232 6.067 8.247 6.08 8.262 6.093 8.276 6.107 8.29 2.321 4.503 2.307 4.49 2.294 4.476 2.281 4.461 2.269 4.445 2.257 4.429"/><path fill="#ad3c19" d="M6.89197 8.27541l0 0zm-3.78627 -3.78627l0 0z"/><polygon fill="#ad3c19" points="2.039 3.893 5.826 7.679 5.831 7.696 5.836 7.714 5.841 7.731 5.847 7.748 5.852 7.766 5.857 7.783 5.863 7.801 5.868 7.818 5.874 7.836 5.88 7.853 5.885 7.87 5.891 7.887 5.897 7.905 5.903 7.922 5.909 7.939 5.915 7.956 5.922 7.972 5.928 7.989 5.934 8.005 5.941 8.022 5.948 8.038 5.955 8.054 5.962 8.069 5.969 8.085 5.976 8.1 5.983 8.115 5.991 8.129 5.999 8.144 6.007 8.158 6.015 8.172 6.023 8.185 6.031 8.198 2.245 4.412 2.237 4.399 2.228 4.385 2.22 4.372 2.213 4.358 2.205 4.343 2.197 4.328 2.19 4.314 2.183 4.298 2.175 4.283 2.168 4.267 2.162 4.251 2.155 4.235 2.148 4.219 2.142 4.203 2.135 4.186 2.129 4.169 2.123 4.152 2.117 4.135 2.111 4.118 2.105 4.101 2.099 4.084 2.093 4.067 2.088 4.049 2.082 4.032 2.077 4.014 2.071 3.997 2.066 3.98 2.06 3.962 2.055 3.945 2.05 3.927 2.045 3.91"/><polygon fill="#ad3c19" points="3.156 4.488 6.942 8.274 6.939 8.275 6.936 8.276 6.933 8.276 6.93 8.277 6.927 8.277 6.923 8.278 6.92 8.278 6.917 8.278 6.914 8.278 6.911 8.278 6.908 8.278 6.904 8.278 6.901 8.277 6.898 8.277 6.895 8.276 6.892 8.275 3.106 4.489 3.109 4.49 3.112 4.491 3.115 4.491 3.118 4.491 3.121 4.492 3.124 4.492 3.128 4.492 3.131 4.492 3.134 4.492 3.137 4.491 3.14 4.491 3.143 4.491 3.147 4.49 3.15 4.489 3.153 4.489"/><polygon fill="#ad3c19" points="2.965 4.555 6.751 8.341 6.712 8.366 6.674 8.389 6.637 8.409 6.601 8.428 6.566 8.444 6.531 8.459 6.498 8.471 6.466 8.481 6.435 8.49 6.404 8.496 6.375 8.501 6.346 8.504 6.318 8.505 6.291 8.505 6.265 8.503 6.24 8.5 6.215 8.495 6.192 8.488 6.168 8.48 6.146 8.471 6.124 8.46 6.103 8.448 6.083 8.435 6.063 8.42 6.044 8.405 2.258 4.618 2.277 4.634 2.297 4.648 2.317 4.662 2.338 4.674 2.36 4.684 2.382 4.694 2.405 4.702 2.429 4.708 2.454 4.713 2.479 4.717 2.505 4.719 2.532 4.719 2.56 4.718 2.589 4.715 2.618 4.71 2.649 4.703 2.68 4.695 2.712 4.685 2.745 4.672 2.779 4.658 2.814 4.642 2.851 4.623 2.888 4.603 2.926 4.58"/><path fill="#ad3c19" d="M3.1057 4.48913l0 0zm0.074252 -0.789343l0 0zm1.82365 -1.52771l0.345094 0.345098c0.020874,0.020874 0.0367992,0.0453819 0.0477205,0.0718386 0.0112795,0.0273031 0.0169173,0.0560866 0.0169173,0.0845433 0,0.0284567 -0.0056378,0.0572362 -0.0169134,0.0845472 -0.0109291,0.0264567 -0.0268465,0.0509685 -0.0477244,0.0718425l-1.49103 1.49103c-0.00820866,0.00912598 -0.0193228,0.0160039 -0.0328071,0.0189921 -0.00176378,0.00038189 -0.00354331,0.00069685 -0.00530709,0.000925197l-0.663799 0.147181c-0.0162835,0.00409055 -0.0335118,0.0052874 -0.0500709,0.00114173l1.1811e-005 -8.66142e-005 3.54331e-005 -0.000145669c-0.0499134,-0.0119606 -0.133335,0.0088622 -0.127705,-0.0431339l0.0535354 -0.0773819c0.000433071,-0.00175591 0.000940945,-0.0034685 0.00151575,-0.00514961l0.146437 -0.660614 0.000444882 -0.00291732c0.0024252,-0.0157835 0.0102441,-0.0286772 0.0209567,-0.0377913l1.48992 -1.48992c0.020878,-0.020878 0.0453819,-0.0367992 0.0718425,-0.0477244 0.0273031,-0.0112717 0.0560787,-0.0169134 0.0845354,-0.0169134 0.0284567,0 0.0572362,0.00564173 0.0845472,0.0169134 0.0264567,0.0109252 0.0509606,0.0268465 0.0718425,0.0477244zm-3.57013 1.29304c0.178874,-0.164028 0.303638,-0.153807 0.403287,-0.0451417 0.0886969,0.0967165 0.143248,0.277004 0.202528,0.472917 0.0554213,0.183169 0.115232,0.380835 0.205823,0.519165 0.120866,0.184555 0.309098,0.26287 0.651665,0.0385236 0.0686457,-0.0449094 0.137,0.0595984 0.0683661,0.104492 -0.424157,0.277783 -0.664866,0.169142 -0.824524,-0.0746496 -0.10061,-0.153626 -0.163079,-0.360083 -0.220965,-0.551394 -0.0550512,-0.181929 -0.105705,-0.34935 -0.174697,-0.424583 -0.0477835,-0.0521063 -0.116339,-0.0490118 -0.227008,0.0524724 -0.0253465,0.0233268 -0.064815,0.021685 -0.0881378,-0.00366142 -0.0233268,-0.0253504 -0.021685,-0.064815 0.00366142,-0.0881417z"/></g><path fill="none" d="M3.41333 0c1.88513,0 3.41333,1.5282 3.41333,3.41333 0,1.88513 -1.5282,3.41333 -3.41333,3.41333 -1.88513,0 -3.41333,-1.5282 -3.41333,-3.41333 0,-1.88513 1.5282,-3.41333 3.41333,-3.41333z"/><path fill="#fffffe" fill-rule="nonzero" d="M5.26031 2.60556l-0.345094 -0.345098c-0.00940945,-0.00940945 -0.0199016,-0.0163583 -0.0308268,-0.0208701 -0.0115433,-0.00476378 -0.0242126,-0.00714961 -0.0371811,-0.00714961 -0.0129646,0 -0.0256339,0.00238583 -0.0371732,0.00714961 -0.0109213,0.00451181 -0.0214173,0.0114606 -0.0308228,0.0208701l-1.449 1.44899 0.481102 0.481102 1.449 -1.449c0.00940945,-0.00940551 0.0163583,-0.0198976 0.0208661,-0.0308189 0.00476378,-0.0115433 0.00714961,-0.0242165 0.00714961,-0.037185 0,-0.0129646 -0.00238583,-0.0256339 -0.00715354,-0.0371811 -0.00450787,-0.0109173 -0.0114528,-0.0214094 -0.0208622,-0.030815zm-0.256713 -0.433484l0.345094 0.345098c0.020874,0.020874 0.0367992,0.0453819 0.0477205,0.0718386 0.0112795,0.0273031 0.0169173,0.0560866 0.0169173,0.0845433 0,0.0284567 -0.0056378,0.0572362 -0.0169134,0.0845472 -0.0109291,0.0264567 -0.0268465,0.0509685 -0.0477244,0.0718425l-1.49296 1.49296 -0.000224409 0.000232283c-0.0244094,0.0244055 -0.0639843,0.0244055 -0.0883898,0l3.93701e-006 -3.93701e-006 -0.569256 -0.569256 -0.000232283 -0.000224409c-0.0244055,-0.0244094 -0.0244055,-0.0639843 0,-0.0883898l3.93701e-006 3.93701e-006 1.49319 -1.49319c0.020878,-0.020878 0.0453819,-0.0367992 0.0718425,-0.0477244 0.0273031,-0.0112717 0.0560787,-0.0169134 0.0845354,-0.0169134 0.0284567,0 0.0572362,0.00564173 0.0845472,0.0169134 0.0264567,0.0109252 0.0509606,0.0268465 0.0718425,0.0477244z"/><path fill="#fffffe" fill-rule="nonzero" d="M3.17951 3.70271c.000122047-.000972441.00026378-.00194488.000433071-.00292126l.000011811.00000393701c.00194882-.0126811.00780315-.024878.0175669-.0346457.0244094-.0244055.0639843-.0244055.0883898 0l-.00000393701.00000393701.568886.568886c.00851575.00822835.0147953.0189606.0175512.0313898.00747244.0336969-.0137874.0670787-.0474882.0745472l-.0135276-.0610197.0134291.0607913-.669008.148335c-.00730315.00205512-.0148031.00329134-.0223701.00362992-.00569291.000251969-.0115394-.00000787402-.0174764-.000814961-.0033937-.000267717-.00681102-.000818898-.0102244-.00167323l.000023622-.0000866142-.000011811 0 .0000354331-.000145669c-.0262047-.00627953-.0475709-.0223819-.0610197-.0435039-.012252-.0192283-.0179646-.042626-.0148465-.0665315l.000019685-.000228346.0000275591-.000377953.000110236-.00115354.0000472441-.000429134.00015748-.00129921.000023622-.000185039.000185039-.00125197.0000669291-.00042126.000181102-.00104331.000114173-.000629921.000181102-.000893701.0000866142-.000429134.0000511811-.000228346.000200787-.000893701.000188976-.000795276.0000511811-.000220472.00000393701 0c.000433071-.00175591.000940945-.0034685.00151575-.00514961l.146358-.660067.0000708661-.000547244.00000787402 0zm.0984724.131283l-.116469.525272.525276-.116465-.408807-.408807zm-.149004.557748l-.000015748 0 0 .000011811.000011811.00000393701.00000393701-.000015748zm-.0000669291-.000011811l-.0365748-.00807874.0168701.00374016.0197087.00435433-.00000393701-.000015748zm.00180709-.00792913l-.00166535.00754331 0 .0000472441.00166929-.00755906-.00000393701-.0000314961zm-.00166535.00754331l-.0000629921.000295276.00000393701.000023622.0000590551-.000271654 0-.0000472441zM4.59322 2.40946c-.0244055-.0244016-.0639764-.0244016-.0883819 0-.0244055.0244055-.0244055.0639803 0 .0883819l.518094.518098c.0244055.0244016.0639803.0244016.0883819 0 .0244055-.0244055.0244055-.0639803 0-.0883858l-.518094-.518094zM3.6957 3.42245c-.0244016.0244016-.0244016.0639764 0 .0883819.0244055.0244016.0639803.0244016.0883819 0l.540618-.540614c.0244055-.0244055.0244055-.0639803 0-.0883819-.0244055-.0244055-.0639803-.0244055-.0883819 0l-.540618.540614zM3.85282 3.57957c-.0244016.0244055-.0244016.0639764 0 .0883819.0244055.0244055.0639803.0244055.0883858 0l.54061-.540618c.0244055-.0244016.0244055-.0639764 0-.0883819-.0244016-.0244016-.0639764-.0244016-.0883819 0l-.540614.540618zM4.00994 3.73668c-.0244055.0244055-.0244055.0639803 0 .0883858.0244055.0244016.0639764.0244016.0883819 0l.540618-.540614c.0244055-.0244055.0244055-.0639803 0-.0883819-.0244016-.0244055-.0639764-.0244055-.0883819 0l-.540618.54061zM1.43347 3.46512c-.0253465.0233268-.0269882.0627913-.00366142.0881417.0233228.0253465.0627913.0269882.0881378.00366142.110669-.101484.179224-.104579.227008-.0524724.0689921.0752323.119646.242654.174697.424583.0578858.191311.120354.397768.220965.551394.159657.243791.400366.352433.824524.0746496.0288543-.018874.0369409-.0575748.018063-.0864291-.018874-.0288543-.0575748-.0369409-.0864291-.018063-.342567.224346-.530799.146031-.651665-.0385236-.0905906-.138331-.150402-.335996-.205823-.519165-.0592795-.195913-.113831-.376201-.202528-.472917-.0996496-.108665-.224413-.118886-.403287.0451417z"/></svg>