<svg xmlns="http://www.w3.org/2000/svg" xmlns:xlink="http://www.w3.org/1999/xlink" width="500" height="500" version="1.2" viewBox="0 0 375 375"><defs><clipPath id="clip1"><path d="M 0 187 L 281 187 L 281 297.886719 L 0 297.886719 Z M 0 187"/></clipPath><clipPath id="clip2"><path d="M 102 77.386719 L 375 77.386719 L 375 188 L 102 188 Z M 102 77.386719"/></clipPath></defs><g id="surface1"><g clip-path="url(#clip1)" clip-rule="nonzero"><path style="stroke:none;fill-rule:nonzero;fill:#ef3c91;fill-opacity:1" d="M 265.53125 187.746094 C 248.261719 187.746094 232.890625 198.015625 225.488281 213.652344 C 225.375 213.890625 225.265625 214.132812 225.148438 214.367188 L 124.15625 214.367188 C 69.570312 214.367188 20.394531 247.417969 -0.273438 298.019531 L 170.601562 298.019531 C 231.316406 298.019531 280.71875 248.550781 280.71875 187.746094 Z M 265.53125 187.746094"/></g><g clip-path="url(#clip2)" clip-rule="nonzero"><path style="stroke:none;fill-rule:nonzero;fill:#009fe3;fill-opacity:1" d="M 117.523438 187.785156 C 134.792969 187.785156 150.164062 177.515625 157.566406 161.878906 C 157.683594 161.636719 157.789062 161.398438 157.90625 161.164062 L 251.21875 161.164062 C 305.8125 161.164062 354.980469 128.105469 375.648438 77.507812 L 212.453125 77.507812 C 150.917969 83.820312 99.890625 145.785156 102.335938 187.785156 Z M 117.523438 187.785156"/></g></g></svg>