<svg id="visual" viewBox="0 0 960 540" width="960" height="540" xmlns="http://www.w3.org/2000/svg" xmlns:xlink="http://www.w3.org/1999/xlink" version="1.1"><path d="M0 310L22.8 316.8C45.7 323.7 91.3 337.3 137 346.7C182.7 356 228.3 361 274 344.2C319.7 327.3 365.3 288.7 411.2 256.3C457 224 503 198 548.8 190.5C594.7 183 640.3 194 686 220.3C731.7 246.7 777.3 288.3 823 300.8C868.7 313.3 914.3 296.7 937.2 288.3L960 280L960 541L937.2 541C914.3 541 868.7 541 823 541C777.3 541 731.7 541 686 541C640.3 541 594.7 541 548.8 541C503 541 457 541 411.2 541C365.3 541 319.7 541 274 541C228.3 541 182.7 541 137 541C91.3 541 45.7 541 22.8 541L0 541Z" fill="#063852" stroke-linecap="round" stroke-linejoin="miter"></path></svg>